<svg width="40" height="40" viewBox="0 0 40 40" fill="none" xmlns="http://www.w3.org/2000/svg">
<circle cx="20" cy="20" r="15" fill="#FFFEFC"/>
<g filter="url(#filter0_d)">
<circle cx="20" cy="20" r="7" fill="#FFD98E"/>
</g>
<path d="M20 7L21.299 10.75H18.701L20 7Z" fill="#FFD98E"/>
<path d="M31.9554 15.7407L28.7768 18.117L27.988 15.6415L31.9554 15.7407Z" fill="#FFD98E"/>
<path d="M27.78 30.6226L24.5418 28.3283L26.655 26.8168L27.78 30.6226Z" fill="#FFD98E"/>
<path d="M12.2417 30.7727L13.4176 26.9823L15.5104 28.5219L12.2417 30.7727Z" fill="#FFD98E"/>
<path d="M6.88953 16.3828L10.8582 16.3776L10.0109 18.8336L6.88953 16.3828Z" fill="#FFD98E"/>
<path d="M27.8283 9.48749L27.2427 13.5764L24.3355 11.6927L27.8283 9.48749Z" fill="#FFD98E"/>
<path d="M11.6383 9.75275L15.208 11.8311L12.3704 13.818L11.6383 9.75275Z" fill="#FFD98E"/>
<path d="M7.64348 24.6413L10.8769 22.0708L11.6969 25.4364L7.64348 24.6413Z" fill="#FFD98E"/>
<path d="M32.2433 23.6828L28.1768 24.4083L29.0545 21.0572L32.2433 23.6828Z" fill="#FFD98E"/>
<path d="M19.825 32.5493L18.0929 28.7993H21.557L19.825 32.5493Z" fill="#FFD98E"/>
<defs>
<filter id="filter0_d" x="3" y="3" width="34" height="34" filterUnits="userSpaceOnUse" color-interpolation-filters="sRGB">
<feFlood flood-opacity="0" result="BackgroundImageFix"/>
<feColorMatrix in="SourceAlpha" type="matrix" values="0 0 0 0 0 0 0 0 0 0 0 0 0 0 0 0 0 0 127 0"/>
<feOffset/>
<feGaussianBlur stdDeviation="5"/>
<feColorMatrix type="matrix" values="0 0 0 0 1 0 0 0 0 0.597 0 0 0 0 0 0 0 0 0.5 0"/>
<feBlend mode="normal" in2="BackgroundImageFix" result="effect1_dropShadow"/>
<feBlend mode="normal" in="SourceGraphic" in2="effect1_dropShadow" result="shape"/>
</filter>
</defs>
</svg>
